<?xml version="1.0" standalone="no"?>
<!DOCTYPE svg PUBLIC "-//W3C//DTD SVG 20010904//EN"
 "http://www.w3.org/TR/2001/REC-SVG-20010904/DTD/svg10.dtd">
<svg version="1.0" xmlns="http://www.w3.org/2000/svg"
 width="268.000000pt" height="268.000000pt" viewBox="0 0 268.000000 268.000000"
 preserveAspectRatio="xMidYMid meet">
<metadata>
Created by potrace 1.14, written by Peter Selinger 2001-2017
</metadata>
<g transform="translate(0.000000,268.000000) scale(0.100000,-0.100000)"
fill="#000000" stroke="none">
<path d="M602 2365 c-532 -266 -570 -286 -586 -319 -15 -32 -16 -96 -14 -665
3 -615 3 -631 23 -650 15 -15 466 -291 720 -441 17 -10 117 -70 224 -134 221
-132 236 -136 321 -86 28 16 52 30 54 30 3 0 172 98 206 120 8 5 29 17 47 26
53 27 69 64 64 152 -2 35 -53 82 -90 82 -19 0 -68 -22 -133 -61 -57 -34 -106
-63 -109 -65 -8 -4 -8 952 0 964 7 11 62 43 620 368 216 126 404 239 417 250
12 12 26 19 30 15 16 -15 -5 92 -22 111 -26 28 -1148 588 -1179 588 -13 0
-281 -128 -593 -285z m984 -168 l387 -194 -31 -21 c-16 -12 -33 -22 -36 -22
-3 0 -164 -90 -357 -200 l-352 -201 -101 57 c-256 145 -614 348 -644 367 l-34
20 389 193 c213 107 389 194 390 194 1 0 176 -87 389 -193z m-961 -619 c193
-111 369 -212 392 -225 24 -14 46 -29 49 -35 5 -8 8 -695 5 -922 l-1 -38 -34
26 c-19 14 -37 26 -40 26 -3 0 -32 17 -63 37 -32 21 -71 44 -86 53 -25 14
-132 79 -486 297 l-116 71 0 461 c0 408 1 461 15 456 8 -4 173 -97 365 -207z"/>
<path d="M1840 1446 c-135 -73 -260 -147 -277 -164 l-33 -30 0 -297 c0 -294 0
-296 23 -318 33 -33 512 -316 544 -323 23 -4 72 21 278 145 137 83 262 162
277 175 l28 24 0 299 c0 298 0 300 -22 320 -34 31 -530 303 -553 303 -11 0
-130 -60 -265 -134z m290 -89 c14 -7 52 -28 85 -47 33 -18 80 -44 105 -57 25
-14 46 -26 48 -28 3 -3 -126 -77 -243 -141 -20 -11 -74 13 -218 98 -26 15 -52
28 -57 28 -16 0 -11 14 8 26 9 6 42 25 72 41 30 17 80 45 110 62 64 36 58 34
90 18z m358 -464 l-3 -148 -85 -52 c-47 -29 -96 -58 -110 -66 -14 -7 -37 -21
-52 -31 l-28 -18 0 154 0 154 133 77 c72 42 135 77 140 77 4 0 6 -66 5 -147z
m-608 64 l125 -72 0 -148 c0 -97 -3 -146 -10 -143 -5 2 -66 38 -135 80 l-125
76 0 140 c-1 91 3 140 10 140 5 0 66 -33 135 -73z"/>
</g>
</svg>
